<?xml version="1.0" standalone="no"?>
<!DOCTYPE svg PUBLIC "-//W3C//DTD SVG 20010904//EN"
 "http://www.w3.org/TR/2001/REC-SVG-20010904/DTD/svg10.dtd">
<svg version="1.0" xmlns="http://www.w3.org/2000/svg"
 width="192.000000pt" height="192.000000pt" viewBox="0 0 192.000000 192.000000"
 preserveAspectRatio="xMidYMid meet">
<metadata>
Created by potrace 1.10, written by Peter Selinger 2001-2011
</metadata>
<g transform="translate(0.000000,192.000000) scale(0.100000,-0.100000)"
fill="#007060" stroke="none">
<path d="M925 1753 c-358 -683 -415 -793 -415 -798 0 -3 72 -5 161 -5 125 0
160 -3 157 -13 -3 -13 -164 -318 -360 -681 -65 -121 -116 -221 -114 -223 2 -2
86 85 187 194 382 410 608 655 804 868 l138 150 -192 3 c-105 1 -191 4 -191 7
0 5 110 179 222 350 94 144 178 281 178 289 0 3 -112 6 -249 6 l-249 0 -77
-147z"/>
<path d="M845 1870 c-164 -19 -368 -106 -492 -210 -149 -124 -268 -308 -313
-485 -60 -232 -22 -484 104 -700 40 -67 222 -265 244 -265 6 0 28 32 49 70
l40 71 -71 72 c-108 111 -169 226 -200 379 -20 98 -20 168 0 266 60 294 269
513 564 588 l72 19 49 96 c45 92 50 111 25 108 -6 -1 -38 -5 -71 -9z"/>
<path d="M1402 1658 l-51 -81 42 -27 c209 -133 352 -412 334 -655 -38 -503
-540 -825 -1028 -660 l-74 25 -57 -57 c-32 -32 -58 -60 -58 -64 0 -9 102 -53
185 -80 58 -19 99 -23 241 -27 150 -3 182 -1 250 17 434 112 725 474 725 901
0 256 -102 487 -294 667 -57 53 -148 123 -160 123 -2 0 -27 -37 -55 -82z"/>
</g>
</svg>
